<svg xmlns="http://www.w3.org/2000/svg" xmlns:xlink="http://www.w3.org/1999/xlink" width="1080" zoomAndPan="magnify" viewBox="0 0 810 809.999993" height="1080" preserveAspectRatio="xMidYMid meet" version="1.0"><defs><clipPath id="623e07ca82"><path d="M 213.238281 120.417969 L 597 120.417969 L 597 689.652344 L 213.238281 689.652344 Z M 213.238281 120.417969 " clip-rule="nonzero"/></clipPath><clipPath id="ea94a58925"><path d="M 387.0625 402.351562 C 387.0625 390.449219 377.417969 380.804688 365.515625 380.804688 C 353.617188 380.804688 343.972656 390.449219 343.972656 402.351562 C 343.972656 414.25 353.617188 423.894531 365.515625 423.894531 C 377.417969 423.894531 387.0625 414.25 387.0625 402.351562 M 425.894531 461.714844 C 414.371094 473.238281 395.628906 473.238281 384.105469 461.714844 C 378.507812 456.125 369.453125 456.125 363.855469 461.714844 C 358.265625 467.308594 358.265625 476.371094 363.855469 481.964844 C 375.199219 493.304688 390.097656 498.980469 405.003906 498.980469 C 419.90625 498.980469 434.800781 493.308594 446.144531 481.964844 C 451.734375 476.371094 451.734375 467.308594 446.144531 461.714844 C 440.546875 456.125 431.492188 456.125 425.894531 461.714844 M 405 535.6875 C 326.839844 535.6875 262.226562 476.757812 253.152344 401 C 319.996094 393.855469 376.671875 352.21875 405 294.292969 C 433.328125 352.222656 490 393.859375 556.84375 401.003906 C 547.773438 476.757812 483.15625 535.6875 405 535.6875 M 412.824219 646.277344 C 410.554688 650.210938 406.949219 650.796875 405 650.796875 C 403.046875 650.796875 399.4375 650.210938 397.167969 646.277344 L 351.253906 566.753906 C 368.320312 571.742188 386.34375 574.476562 405.003906 574.476562 C 423.660156 574.476562 441.679688 571.746094 458.742188 566.757812 Z M 384.148438 231.191406 C 374.878906 298.886719 321.179688 352.589844 253.476562 361.863281 C 262.75 294.164062 316.449219 240.464844 384.148438 231.191406 M 405 159.199219 C 433.070312 159.199219 457.042969 176.65625 466.882812 201.253906 C 447.453125 194.609375 426.652344 190.949219 405 190.949219 C 383.34375 190.949219 362.539062 194.609375 343.109375 201.253906 C 352.953125 176.65625 376.921875 159.199219 405 159.199219 M 556.519531 361.863281 C 488.820312 352.589844 435.117188 298.886719 425.851562 231.191406 C 493.546875 240.464844 547.25 294.164062 556.519531 361.859375 M 510.492188 222.6875 C 508.734375 166 462.105469 120.417969 405 120.417969 C 347.890625 120.417969 301.261719 166 299.503906 222.6875 C 247.578125 257.03125 213.238281 315.925781 213.238281 382.710938 C 213.238281 444.296875 242.449219 499.152344 287.710938 534.265625 L 363.578125 665.667969 C 372.226562 680.640625 387.710938 689.585938 405.003906 689.585938 C 422.296875 689.585938 437.773438 680.640625 446.414062 665.671875 L 522.289062 534.265625 C 567.550781 499.15625 596.765625 444.296875 596.765625 382.710938 C 596.765625 315.925781 562.421875 257.03125 510.492188 222.6875 M 444.488281 380.800781 C 432.585938 380.800781 422.941406 390.445312 422.941406 402.347656 C 422.941406 414.246094 432.585938 423.890625 444.488281 423.890625 C 456.386719 423.890625 466.03125 414.246094 466.03125 402.347656 C 466.03125 390.445312 456.386719 380.800781 444.488281 380.800781 " clip-rule="nonzero"/></clipPath></defs><g clip-path="url(#623e07ca82)"><g clip-path="url(#ea94a58925)"><path fill="#b97e60" d="M 213.238281 120.417969 L 596.761719 120.417969 L 596.761719 689.652344 L 213.238281 689.652344 Z M 213.238281 120.417969 " fill-opacity="1" fill-rule="nonzero"/></g></g></svg>