<svg xmlns="http://www.w3.org/2000/svg" xmlns:xlink="http://www.w3.org/1999/xlink" width="1123" zoomAndPan="magnify" viewBox="0 0 841.92 595.499987" height="794" preserveAspectRatio="xMidYMid meet" version="1.0"><defs><clipPath id="22d8bf8a45"><path d="M 96.289062 284.398438 L 379.691406 284.398438 L 379.691406 336.125 L 96.289062 336.125 Z M 96.289062 284.398438 " clip-rule="nonzero"/></clipPath><clipPath id="1efeae9ccb"><path d="M 353.335938 325.054688 C 344.691406 325.054688 338.835938 318.902344 338.835938 310.257812 C 338.835938 301.617188 344.691406 295.460938 353.335938 295.460938 C 361.976562 295.460938 367.734375 301.617188 367.734375 310.257812 C 367.734375 318.902344 361.976562 325.054688 353.335938 325.054688 M 353.433594 284.429688 C 337.835938 284.429688 326.917969 295.160156 326.917969 310.746094 C 326.917969 327.535156 339.425781 336.078125 351.347656 336.078125 C 359.089844 336.078125 365.746094 332.398438 368.730469 325.15625 L 368.730469 334.789062 L 379.5625 334.789062 L 379.5625 310.65625 C 379.5625 294.871094 368.832031 284.441406 353.445312 284.441406 M 178.851562 325.054688 C 170.207031 325.054688 164.351562 318.902344 164.351562 310.257812 C 164.351562 301.617188 170.21875 295.460938 178.851562 295.460938 C 187.484375 295.460938 193.25 301.617188 193.25 310.257812 C 193.25 318.902344 187.492188 325.054688 178.851562 325.054688 M 178.851562 284.429688 C 163.355469 284.429688 152.433594 295.351562 152.433594 310.257812 C 152.433594 325.164062 163.355469 336.085938 178.851562 336.085938 C 194.347656 336.085938 205.269531 325.164062 205.269531 310.257812 C 205.269531 295.351562 194.347656 284.429688 178.851562 284.429688 M 294.335938 284.429688 C 279.835938 284.429688 270.105469 292.871094 270.105469 309.257812 L 270.105469 334.789062 L 281.925781 334.789062 L 281.925781 309.269531 C 281.925781 299.925781 286.890625 295.460938 294.335938 295.460938 C 301.777344 295.460938 306.753906 299.925781 306.753906 309.269531 L 306.753906 334.789062 L 318.574219 334.789062 L 318.574219 309.269531 C 318.574219 292.78125 308.84375 284.441406 294.335938 284.441406 M 237.140625 284.441406 C 222.644531 284.441406 212.902344 292.882812 212.902344 309.269531 L 212.902344 334.789062 L 224.722656 334.789062 L 224.722656 309.269531 C 224.722656 299.925781 229.6875 295.460938 237.140625 295.460938 C 244.597656 295.460938 249.5625 299.925781 249.5625 309.269531 L 249.5625 334.789062 L 261.382812 334.789062 L 261.382812 309.269531 C 261.382812 292.78125 251.648438 284.441406 237.152344 284.441406 M 120.570312 284.441406 C 106.0625 284.429688 96.332031 292.871094 96.332031 309.269531 L 96.332031 334.789062 L 108.152344 334.789062 L 108.152344 309.269531 C 108.152344 299.925781 113.117188 295.460938 120.570312 295.460938 C 128.023438 295.460938 132.980469 299.925781 132.980469 309.269531 L 132.980469 334.789062 L 144.800781 334.789062 L 144.800781 309.269531 C 144.800781 292.78125 135.066406 284.441406 120.570312 284.441406 " clip-rule="nonzero"/></clipPath><clipPath id="b20500aa83"><path d="M 462.238281 264.035156 L 745.640625 264.035156 L 745.640625 336.125 L 462.238281 336.125 Z M 462.238281 264.035156 " clip-rule="nonzero"/></clipPath><clipPath id="69f380b7ad"><path d="M 719.257812 325.054688 C 710.613281 325.054688 704.757812 318.902344 704.757812 310.257812 C 704.757812 301.617188 710.613281 295.460938 719.257812 295.460938 C 727.898438 295.460938 733.65625 301.617188 733.65625 310.257812 C 733.65625 318.902344 727.890625 325.054688 719.257812 325.054688 M 719.355469 284.429688 C 703.761719 284.429688 692.839844 295.160156 692.839844 310.746094 C 692.839844 327.535156 705.359375 336.078125 717.269531 336.078125 C 725.011719 336.078125 731.667969 332.398438 734.644531 325.15625 L 734.644531 334.789062 L 745.476562 334.789062 L 745.476562 310.65625 C 745.476562 294.871094 734.746094 284.441406 719.355469 284.441406 M 672.675781 334.796875 L 684.496094 334.796875 L 684.496094 285.730469 L 672.675781 285.730469 Z M 678.582031 264.375 C 674.445312 264.375 671.476562 267.414062 671.476562 271.53125 C 671.476562 275.648438 674.445312 278.59375 678.582031 278.59375 C 682.71875 278.59375 685.6875 275.648438 685.6875 271.53125 C 685.6875 267.414062 682.71875 264.375 678.582031 264.375 M 641.121094 284.429688 C 628.3125 284.429688 619.570312 291.484375 619.570312 306.28125 L 619.570312 334.789062 L 631.390625 334.789062 L 631.390625 306.28125 C 631.390625 298.339844 635.367188 295.460938 641.121094 295.460938 C 646.878906 295.460938 650.863281 298.339844 650.863281 306.28125 L 650.863281 306.78125 L 662.585938 306.78125 L 662.585938 306.480469 C 662.585938 291.484375 653.941406 284.429688 641.132812 284.429688 M 582.710938 325.054688 C 574.070312 325.054688 568.214844 318.902344 568.214844 310.257812 C 568.214844 301.617188 574.078125 295.460938 582.710938 295.460938 C 591.34375 295.460938 597.109375 301.617188 597.109375 310.257812 C 597.109375 318.902344 591.34375 325.054688 582.710938 325.054688 M 582.8125 284.429688 C 567.214844 284.429688 556.292969 295.160156 556.292969 310.746094 C 556.292969 327.535156 568.8125 336.078125 580.722656 336.078125 C 588.46875 336.078125 595.121094 332.398438 598.109375 325.15625 L 598.109375 334.789062 L 608.929688 334.789062 L 608.929688 310.65625 C 608.929688 294.871094 598.210938 284.441406 582.8125 284.441406 M 523.152344 284.441406 C 515.457031 284.441406 509.113281 286.816406 504.847656 291.492188 C 500.582031 286.808594 494.214844 284.441406 486.503906 284.441406 C 472.003906 284.441406 462.261719 292.882812 462.261719 309.269531 L 462.261719 334.789062 L 474.082031 334.789062 L 474.082031 309.269531 C 474.082031 299.925781 479.050781 295.460938 486.503906 295.460938 C 493.957031 295.460938 498.914062 299.925781 498.914062 309.269531 L 498.914062 334.789062 L 510.734375 334.789062 L 510.734375 309.269531 C 510.734375 299.925781 515.699219 295.460938 523.152344 295.460938 C 530.605469 295.460938 535.5625 299.925781 535.5625 309.269531 L 535.5625 334.789062 L 547.382812 334.789062 L 547.382812 309.269531 C 547.382812 292.78125 537.648438 284.441406 523.152344 284.441406 " clip-rule="nonzero"/></clipPath><clipPath id="9b382bd577"><path d="M 377.492188 205.152344 L 465.539062 205.152344 L 465.539062 335.574219 L 377.492188 335.574219 Z M 377.492188 205.152344 " clip-rule="nonzero"/></clipPath><clipPath id="6359f2697c"><path d="M 417.5 269.730469 C 417.5 267.003906 415.292969 264.796875 412.566406 264.796875 C 409.835938 264.796875 407.628906 267.003906 407.628906 269.730469 C 407.628906 272.460938 409.835938 274.667969 412.566406 274.667969 C 415.292969 274.667969 417.5 272.460938 417.5 269.730469 M 426.394531 283.320312 C 423.753906 285.957031 419.46875 285.957031 416.832031 283.320312 C 415.550781 282.042969 413.472656 282.042969 412.195312 283.320312 C 410.917969 284.601562 410.917969 286.679688 412.195312 287.957031 C 414.792969 290.554688 418.199219 291.855469 421.617188 291.855469 C 425.035156 291.855469 428.441406 290.554688 431.039062 287.957031 C 432.320312 286.679688 432.320312 284.601562 431.039062 283.320312 C 429.761719 282.042969 427.683594 282.042969 426.402344 283.320312 M 421.617188 300.257812 C 403.722656 300.257812 388.933594 286.769531 386.855469 269.421875 C 402.152344 267.785156 415.132812 258.25 421.617188 244.992188 C 428.101562 258.25 441.070312 267.785156 456.378906 269.421875 C 454.300781 286.769531 439.511719 300.257812 421.617188 300.257812 M 423.40625 325.566406 C 422.886719 326.464844 422.058594 326.605469 421.617188 326.605469 C 421.175781 326.605469 420.347656 326.464844 419.828125 325.566406 L 409.316406 307.359375 C 413.222656 308.5 417.351562 309.128906 421.617188 309.128906 C 425.882812 309.128906 430.011719 308.507812 433.917969 307.359375 Z M 416.839844 230.554688 C 414.722656 246.050781 402.421875 258.34375 386.9375 260.460938 C 389.054688 244.964844 401.355469 232.671875 416.839844 230.554688 M 421.617188 214.078125 C 428.042969 214.078125 433.527344 218.074219 435.785156 223.699219 C 431.339844 222.183594 426.574219 221.34375 421.617188 221.34375 C 416.660156 221.34375 411.894531 222.183594 407.449219 223.699219 C 409.707031 218.074219 415.191406 214.078125 421.617188 214.078125 M 456.296875 260.46875 C 440.800781 258.351562 428.511719 246.050781 426.382812 230.566406 C 441.878906 232.683594 454.171875 244.984375 456.296875 260.46875 M 445.746094 228.605469 C 445.347656 215.628906 434.675781 205.195312 421.605469 205.195312 C 408.539062 205.195312 397.855469 215.628906 397.457031 228.605469 C 385.566406 236.46875 377.714844 249.949219 377.714844 265.234375 C 377.714844 279.335938 384.398438 291.894531 394.761719 299.925781 L 412.125 330 C 414.105469 333.429688 417.652344 335.476562 421.605469 335.476562 C 425.5625 335.476562 429.109375 333.429688 431.089844 330 L 448.453125 299.925781 C 458.816406 291.894531 465.5 279.335938 465.5 265.234375 C 465.5 249.949219 457.636719 236.46875 445.757812 228.605469 M 430.640625 264.796875 C 427.910156 264.796875 425.703125 267.003906 425.703125 269.730469 C 425.703125 272.460938 427.910156 274.667969 430.640625 274.667969 C 433.367188 274.667969 435.574219 272.460938 435.574219 269.730469 C 435.574219 267.003906 433.367188 264.796875 430.640625 264.796875 " clip-rule="nonzero"/></clipPath><clipPath id="e663412e1a"><path d="M 282.703125 354.730469 L 296 354.730469 L 296 367.894531 L 282.703125 367.894531 Z M 282.703125 354.730469 " clip-rule="nonzero"/></clipPath><clipPath id="fd971652e0"><path d="M 283.117188 359.078125 C 284.347656 355.5625 287.824219 353.882812 291.480469 355.164062 C 294.347656 356.160156 296.007812 358.507812 295.996094 361.175781 L 293.449219 360.289062 C 293.21875 358.9375 292.242188 357.808594 290.734375 357.289062 C 288.40625 356.480469 286.246094 357.601562 285.445312 359.886719 C 284.648438 362.175781 285.636719 364.425781 287.964844 365.234375 C 289.792969 365.875 291.433594 365.492188 292.5625 364.105469 L 288.09375 362.546875 L 288.804688 360.507812 L 295.738281 362.925781 L 295.359375 364.015625 C 293.96875 367.132812 290.664062 368.550781 287.214844 367.351562 C 283.558594 366.074219 281.878906 362.597656 283.097656 359.078125 " clip-rule="nonzero"/></clipPath><clipPath id="18e9e76415"><path d="M 296.933594 358.464844 L 309.386719 358.464844 L 309.386719 373.230469 L 296.933594 373.230469 Z M 296.933594 358.464844 " clip-rule="nonzero"/></clipPath><clipPath id="1be5bd4172"><path d="M 300.632812 358.507812 L 309.375 361.199219 L 308.707031 363.355469 L 302.28125 361.378906 L 301.472656 364.023438 L 306.847656 365.671875 L 306.210938 367.742188 L 300.832031 366.09375 L 299.953125 368.941406 L 306.378906 370.917969 L 305.71875 373.058594 L 296.976562 370.371094 Z M 300.632812 358.507812 " clip-rule="nonzero"/></clipPath><clipPath id="64470f5d5b"><path d="M 309.386719 362.023438 L 318.8125 362.023438 L 318.8125 376.609375 L 309.386719 376.609375 Z M 309.386719 362.023438 " clip-rule="nonzero"/></clipPath><clipPath id="558c05db3d"><path d="M 312.773438 362.175781 L 315.121094 362.816406 L 312.445312 372.628906 L 318.707031 374.335938 L 318.121094 376.496094 L 309.515625 374.148438 Z M 312.773438 362.175781 " clip-rule="nonzero"/></clipPath><clipPath id="7ebe6c6156"><path d="M 321.125 366 L 333.757812 366 L 333.757812 379.988281 L 321.125 379.988281 Z M 321.125 366 " clip-rule="nonzero"/></clipPath><clipPath id="79e8133844"><path d="M 330.847656 373.496094 L 331.160156 372.1875 C 331.617188 370.25 330.917969 368.910156 328.921875 368.441406 C 326.941406 367.972656 325.722656 368.851562 325.261719 370.789062 L 324.953125 372.097656 Z M 322.957031 370.238281 C 323.726562 367.003906 326.042969 365.433594 329.460938 366.242188 C 332.878906 367.050781 334.285156 369.511719 333.515625 372.746094 L 331.835938 379.820312 L 329.46875 379.261719 L 330.328125 375.644531 L 324.433594 374.246094 L 323.574219 377.863281 L 321.265625 377.3125 Z M 322.957031 370.238281 " clip-rule="nonzero"/></clipPath><clipPath id="4e115da7de"><path d="M 336.601562 368.25 L 346.917969 368.25 L 346.917969 381.769531 L 336.601562 381.769531 Z M 336.601562 368.25 " clip-rule="nonzero"/></clipPath><clipPath id="2db318633f"><path d="M 340.3125 371.21875 L 336.683594 370.480469 L 337.132812 368.273438 L 346.765625 370.21875 L 346.316406 372.429688 L 342.6875 371.6875 L 340.671875 381.640625 L 338.292969 381.160156 Z M 340.3125 371.21875 " clip-rule="nonzero"/></clipPath><clipPath id="ee1552819e"><path d="M 347.273438 371.273438 L 360.792969 371.273438 L 360.792969 384.257812 L 347.273438 384.257812 Z M 347.273438 371.273438 " clip-rule="nonzero"/></clipPath><clipPath id="8e25848c74"><path d="M 358.097656 378.464844 C 358.496094 376.066406 357.136719 374.046875 354.707031 373.648438 C 352.28125 373.246094 350.332031 374.707031 349.933594 377.105469 C 349.53125 379.503906 350.890625 381.53125 353.320312 381.941406 C 355.746094 382.351562 357.695312 380.859375 358.097656 378.464844 M 347.503906 376.695312 C 348.113281 373.027344 351.261719 370.78125 355.078125 371.417969 C 358.894531 372.058594 361.144531 375.207031 360.535156 378.871094 C 359.925781 382.539062 356.777344 384.789062 352.949219 384.148438 C 349.125 383.507812 346.886719 380.363281 347.496094 376.695312 " clip-rule="nonzero"/></clipPath><clipPath id="e0481dce01"><path d="M 370.042969 374 L 380.539062 374 L 380.539062 387.460938 L 370.042969 387.460938 Z M 370.042969 374 " clip-rule="nonzero"/></clipPath><clipPath id="c085be42a3"><path d="M 371.425781 374.066406 L 380.515625 375.085938 L 380.265625 377.332031 L 373.59375 376.585938 L 373.28125 379.332031 L 378.867188 379.960938 L 378.628906 382.109375 L 373.042969 381.480469 L 372.714844 384.4375 L 379.386719 385.1875 L 379.136719 387.414062 L 370.046875 386.394531 Z M 371.425781 374.066406 " clip-rule="nonzero"/></clipPath><clipPath id="bf9ff29dee"><path d="M 389.789062 375.898438 L 401.351562 375.898438 L 401.351562 388.707031 L 389.789062 388.707031 Z M 389.789062 375.898438 " clip-rule="nonzero"/></clipPath><clipPath id="841e65117c"><path d="M 394.457031 386.394531 C 397.3125 386.566406 398.703125 385.097656 398.839844 382.6875 C 398.980469 380.28125 397.792969 378.671875 394.925781 378.492188 L 392.957031 378.371094 L 392.476562 386.277344 Z M 390.667969 375.976562 L 395.066406 376.246094 C 399.402344 376.503906 401.527344 379.121094 401.300781 382.839844 C 401.070312 386.554688 398.652344 388.902344 394.316406 388.632812 L 389.917969 388.375 Z M 390.667969 375.976562 " clip-rule="nonzero"/></clipPath><clipPath id="cd7a9f7afb"><path d="M 404.019531 376.609375 L 417.359375 376.609375 L 417.359375 389.59375 L 404.019531 389.59375 Z M 404.019531 376.609375 " clip-rule="nonzero"/></clipPath><clipPath id="99bc0aabc9"><path d="M 414.878906 383.21875 C 414.929688 380.789062 413.300781 378.984375 410.832031 378.933594 C 408.363281 378.882812 406.65625 380.601562 406.59375 383.027344 C 406.535156 385.457031 408.171875 387.277344 410.640625 387.335938 C 413.109375 387.394531 414.816406 385.648438 414.878906 383.21875 M 404.136719 382.980469 C 404.21875 379.261719 407.015625 376.585938 410.890625 376.675781 C 414.769531 376.765625 417.4375 379.550781 417.355469 383.277344 C 417.277344 387.003906 414.476562 389.671875 410.601562 389.582031 C 406.726562 389.492188 404.058594 386.707031 404.136719 382.980469 " clip-rule="nonzero"/></clipPath><clipPath id="3427185e37"><path d="M 421 377 L 430.347656 377 L 430.347656 389.59375 L 421 389.59375 Z M 421 377 " clip-rule="nonzero"/></clipPath><clipPath id="c3c7f52896"><path d="M 421.054688 377.054688 L 423.480469 377.015625 L 423.640625 387.1875 L 430.136719 387.085938 L 430.175781 389.324219 L 421.253906 389.464844 Z M 421.054688 377.054688 " clip-rule="nonzero"/></clipPath><clipPath id="960c049290"><path d="M 432.125 376.253906 L 445.464844 376.253906 L 445.464844 389.417969 L 432.125 389.417969 Z M 432.125 376.253906 " clip-rule="nonzero"/></clipPath><clipPath id="dbef976b0e"><path d="M 432.234375 383.089844 C 432.0625 379.371094 434.660156 376.515625 438.527344 376.335938 C 441.773438 376.183594 444.304688 377.984375 445.140625 380.78125 L 442.585938 380.902344 C 441.925781 379.433594 440.476562 378.511719 438.636719 378.59375 C 436.171875 378.710938 434.582031 380.550781 434.703125 382.980469 C 434.820312 385.40625 436.570312 387.117188 439.039062 386.996094 C 440.875 386.90625 442.234375 385.835938 442.753906 384.316406 L 445.3125 384.199219 C 444.742188 387.054688 442.386719 389.085938 439.136719 389.234375 C 435.269531 389.414062 432.414062 386.804688 432.234375 383.089844 " clip-rule="nonzero"/></clipPath><clipPath id="cc414fc4cb"><path d="M 448.132812 375.1875 L 458.449219 375.1875 L 458.449219 388.527344 L 448.132812 388.527344 Z M 448.132812 375.1875 " clip-rule="nonzero"/></clipPath><clipPath id="37441fbf69"><path d="M 448.140625 376.046875 L 457.261719 375.296875 L 457.453125 377.542969 L 450.757812 378.09375 L 450.988281 380.851562 L 456.59375 380.390625 L 456.773438 382.550781 L 451.175781 383.007812 L 451.417969 385.976562 L 458.113281 385.425781 L 458.292969 387.664062 L 449.167969 388.414062 Z M 448.140625 376.046875 " clip-rule="nonzero"/></clipPath><clipPath id="bf759ba4bb"><path d="M 467.523438 373.761719 L 471.613281 373.761719 L 471.613281 386.570312 L 467.523438 386.570312 Z M 467.523438 373.761719 " clip-rule="nonzero"/></clipPath><clipPath id="376e04b346"><path d="M 467.5625 374.148438 L 469.972656 373.847656 L 471.511719 386.167969 L 469.101562 386.464844 Z M 467.5625 374.148438 " clip-rule="nonzero"/></clipPath><clipPath id="7247d2b2fd"><path d="M 473.214844 371.804688 L 483.355469 371.804688 L 483.355469 385.324219 L 473.214844 385.324219 Z M 473.214844 371.804688 " clip-rule="nonzero"/></clipPath><clipPath id="10e95931e9"><path d="M 477.265625 375.125 L 473.597656 375.675781 L 473.269531 373.4375 L 483 371.976562 L 483.332031 374.214844 L 479.664062 374.765625 L 481.164062 384.816406 L 478.753906 385.175781 Z M 477.265625 375.125 " clip-rule="nonzero"/></clipPath><clipPath id="85745664e1"><path d="M 486.199219 370.207031 L 498.472656 370.207031 L 498.472656 383.902344 L 486.199219 383.902344 Z M 486.199219 370.207031 " clip-rule="nonzero"/></clipPath><clipPath id="53cafb995d"><path d="M 494.921875 376.453125 L 494.679688 375.125 C 494.320312 373.167969 493.140625 372.21875 491.132812 372.585938 C 489.136719 372.957031 488.367188 374.246094 488.726562 376.214844 L 488.964844 377.542969 Z M 486.386719 376.644531 C 485.789062 373.378906 487.285156 371 490.746094 370.371094 C 494.203125 369.742188 496.480469 371.429688 497.070312 374.695312 L 498.378906 381.851562 L 495.988281 382.289062 L 495.320312 378.632812 L 489.367188 379.722656 L 490.035156 383.378906 L 487.695312 383.808594 Z M 486.386719 376.644531 " clip-rule="nonzero"/></clipPath><clipPath id="3989bcf3c8"><path d="M 499.542969 368.25 L 511.105469 368.25 L 511.105469 381.054688 L 499.542969 381.054688 Z M 499.542969 368.25 " clip-rule="nonzero"/></clipPath><clipPath id="76129749cc"><path d="M 499.6875 368.890625 L 502.066406 368.371094 L 504.234375 378.3125 L 510.578125 376.925781 L 511.058594 379.113281 L 502.335938 381.019531 Z M 499.6875 368.890625 " clip-rule="nonzero"/></clipPath><clipPath id="8fa9e0f4a0"><path d="M 511.460938 365.582031 L 516.972656 365.582031 L 516.972656 378.386719 L 511.460938 378.386719 Z M 511.460938 365.582031 " clip-rule="nonzero"/></clipPath><clipPath id="0f50e9d63b"><path d="M 511.625 366.203125 L 513.984375 365.625 L 516.921875 377.683594 L 514.5625 378.261719 Z M 511.625 366.203125 " clip-rule="nonzero"/></clipPath><clipPath id="bc467db01a"><path d="M 518.574219 362.734375 L 531.382812 362.734375 L 531.382812 376.789062 L 518.574219 376.789062 Z M 518.574219 362.734375 " clip-rule="nonzero"/></clipPath><clipPath id="93d547edc1"><path d="M 527.464844 368.800781 L 527.113281 367.503906 C 526.59375 365.582031 525.335938 364.746094 523.355469 365.285156 C 521.398438 365.8125 520.75 367.171875 521.269531 369.101562 L 521.617188 370.398438 Z M 518.980469 369.710938 C 518.109375 366.503906 519.398438 364.015625 522.789062 363.085938 C 526.175781 362.15625 528.582031 363.65625 529.460938 366.851562 L 531.371094 373.867188 L 529.03125 374.507812 L 528.054688 370.917969 L 522.207031 372.507812 L 523.1875 376.09375 L 520.898438 376.714844 Z M 518.980469 369.710938 " clip-rule="nonzero"/></clipPath><clipPath id="34b89f7e20"><path d="M 532.273438 358.644531 L 545.078125 358.644531 L 545.078125 372.875 L 532.273438 372.875 Z M 532.273438 358.644531 " clip-rule="nonzero"/></clipPath><clipPath id="fb8cb934f6"><path d="M 532.738281 365.671875 C 531.789062 362.625 532.988281 360.167969 536.234375 359.148438 C 539.484375 358.128906 541.871094 359.480469 542.820312 362.527344 L 545.046875 369.671875 L 542.730469 370.390625 L 540.503906 363.246094 C 539.953125 361.488281 538.722656 360.738281 536.914062 361.308594 C 535.105469 361.875 534.515625 363.1875 535.066406 364.945312 L 537.296875 372.089844 L 534.976562 372.808594 Z M 532.738281 365.671875 " clip-rule="nonzero"/></clipPath><clipPath id="aad3a39846"><path d="M 545.789062 354.019531 L 559.132812 354.019531 L 559.132812 367.179688 L 545.789062 367.179688 Z M 545.789062 354.019531 " clip-rule="nonzero"/></clipPath><clipPath id="376dfb90e5"><path d="M 556.359375 359.167969 C 555.550781 356.882812 553.382812 355.773438 551.054688 356.601562 C 548.726562 357.429688 547.734375 359.648438 548.554688 361.9375 C 549.375 364.226562 551.542969 365.355469 553.871094 364.523438 C 556.199219 363.695312 557.179688 361.457031 556.367188 359.167969 M 546.238281 362.757812 C 545 359.25 546.65625 355.753906 550.3125 354.464844 C 553.972656 353.175781 557.457031 354.832031 558.695312 358.339844 C 559.9375 361.847656 558.277344 365.335938 554.621094 366.632812 C 550.964844 367.933594 547.476562 366.261719 546.238281 362.757812 " clip-rule="nonzero"/></clipPath></defs><g clip-path="url(#22d8bf8a45)"><g clip-path="url(#1efeae9ccb)"><path fill="#231f20" d="M 91.335938 200.199219 L 750.59375 200.199219 L 750.59375 341.078125 L 91.335938 341.078125 Z M 91.335938 200.199219 " fill-opacity="1" fill-rule="nonzero"/></g></g><g clip-path="url(#b20500aa83)"><g clip-path="url(#69f380b7ad)"><path fill="#231f20" d="M 91.335938 200.199219 L 750.59375 200.199219 L 750.59375 341.078125 L 91.335938 341.078125 Z M 91.335938 200.199219 " fill-opacity="1" fill-rule="nonzero"/></g></g><g clip-path="url(#9b382bd577)"><g clip-path="url(#6359f2697c)"><path fill="#b97e60" d="M 91.335938 200.199219 L 750.59375 200.199219 L 750.59375 341.078125 L 91.335938 341.078125 Z M 91.335938 200.199219 " fill-opacity="1" fill-rule="nonzero"/></g></g><g clip-path="url(#e663412e1a)"><g clip-path="url(#fd971652e0)"><path fill="#b97e60" d="M 277.722656 349.039062 L 564.113281 349.039062 L 564.113281 394.574219 L 277.722656 394.574219 Z M 277.722656 349.039062 " fill-opacity="1" fill-rule="nonzero"/></g></g><g clip-path="url(#18e9e76415)"><g clip-path="url(#1be5bd4172)"><path fill="#b97e60" d="M 277.722656 349.039062 L 564.113281 349.039062 L 564.113281 394.574219 L 277.722656 394.574219 Z M 277.722656 349.039062 " fill-opacity="1" fill-rule="nonzero"/></g></g><g clip-path="url(#64470f5d5b)"><g clip-path="url(#558c05db3d)"><path fill="#b97e60" d="M 277.722656 349.039062 L 564.113281 349.039062 L 564.113281 394.574219 L 277.722656 394.574219 Z M 277.722656 349.039062 " fill-opacity="1" fill-rule="nonzero"/></g></g><g clip-path="url(#7ebe6c6156)"><g clip-path="url(#79e8133844)"><path fill="#b97e60" d="M 277.722656 349.039062 L 564.113281 349.039062 L 564.113281 394.574219 L 277.722656 394.574219 Z M 277.722656 349.039062 " fill-opacity="1" fill-rule="nonzero"/></g></g><g clip-path="url(#4e115da7de)"><g clip-path="url(#2db318633f)"><path fill="#b97e60" d="M 277.722656 349.039062 L 564.113281 349.039062 L 564.113281 394.574219 L 277.722656 394.574219 Z M 277.722656 349.039062 " fill-opacity="1" fill-rule="nonzero"/></g></g><g clip-path="url(#ee1552819e)"><g clip-path="url(#8e25848c74)"><path fill="#b97e60" d="M 277.722656 349.039062 L 564.113281 349.039062 L 564.113281 394.574219 L 277.722656 394.574219 Z M 277.722656 349.039062 " fill-opacity="1" fill-rule="nonzero"/></g></g><g clip-path="url(#e0481dce01)"><g clip-path="url(#c085be42a3)"><path fill="#b97e60" d="M 277.722656 349.039062 L 564.113281 349.039062 L 564.113281 394.574219 L 277.722656 394.574219 Z M 277.722656 349.039062 " fill-opacity="1" fill-rule="nonzero"/></g></g><g clip-path="url(#bf9ff29dee)"><g clip-path="url(#841e65117c)"><path fill="#b97e60" d="M 277.722656 349.039062 L 564.113281 349.039062 L 564.113281 394.574219 L 277.722656 394.574219 Z M 277.722656 349.039062 " fill-opacity="1" fill-rule="nonzero"/></g></g><g clip-path="url(#cd7a9f7afb)"><g clip-path="url(#99bc0aabc9)"><path fill="#b97e60" d="M 277.722656 349.039062 L 564.113281 349.039062 L 564.113281 394.574219 L 277.722656 394.574219 Z M 277.722656 349.039062 " fill-opacity="1" fill-rule="nonzero"/></g></g><g clip-path="url(#3427185e37)"><g clip-path="url(#c3c7f52896)"><path fill="#b97e60" d="M 277.722656 349.039062 L 564.113281 349.039062 L 564.113281 394.574219 L 277.722656 394.574219 Z M 277.722656 349.039062 " fill-opacity="1" fill-rule="nonzero"/></g></g><g clip-path="url(#960c049290)"><g clip-path="url(#dbef976b0e)"><path fill="#b97e60" d="M 277.722656 349.039062 L 564.113281 349.039062 L 564.113281 394.574219 L 277.722656 394.574219 Z M 277.722656 349.039062 " fill-opacity="1" fill-rule="nonzero"/></g></g><g clip-path="url(#cc414fc4cb)"><g clip-path="url(#37441fbf69)"><path fill="#b97e60" d="M 277.722656 349.039062 L 564.113281 349.039062 L 564.113281 394.574219 L 277.722656 394.574219 Z M 277.722656 349.039062 " fill-opacity="1" fill-rule="nonzero"/></g></g><g clip-path="url(#bf759ba4bb)"><g clip-path="url(#376e04b346)"><path fill="#b97e60" d="M 277.722656 349.039062 L 564.113281 349.039062 L 564.113281 394.574219 L 277.722656 394.574219 Z M 277.722656 349.039062 " fill-opacity="1" fill-rule="nonzero"/></g></g><g clip-path="url(#7247d2b2fd)"><g clip-path="url(#10e95931e9)"><path fill="#b97e60" d="M 277.722656 349.039062 L 564.113281 349.039062 L 564.113281 394.574219 L 277.722656 394.574219 Z M 277.722656 349.039062 " fill-opacity="1" fill-rule="nonzero"/></g></g><g clip-path="url(#85745664e1)"><g clip-path="url(#53cafb995d)"><path fill="#b97e60" d="M 277.722656 349.039062 L 564.113281 349.039062 L 564.113281 394.574219 L 277.722656 394.574219 Z M 277.722656 349.039062 " fill-opacity="1" fill-rule="nonzero"/></g></g><g clip-path="url(#3989bcf3c8)"><g clip-path="url(#76129749cc)"><path fill="#b97e60" d="M 277.722656 349.039062 L 564.113281 349.039062 L 564.113281 394.574219 L 277.722656 394.574219 Z M 277.722656 349.039062 " fill-opacity="1" fill-rule="nonzero"/></g></g><g clip-path="url(#8fa9e0f4a0)"><g clip-path="url(#0f50e9d63b)"><path fill="#b97e60" d="M 277.722656 349.039062 L 564.113281 349.039062 L 564.113281 394.574219 L 277.722656 394.574219 Z M 277.722656 349.039062 " fill-opacity="1" fill-rule="nonzero"/></g></g><g clip-path="url(#bc467db01a)"><g clip-path="url(#93d547edc1)"><path fill="#b97e60" d="M 277.722656 349.039062 L 564.113281 349.039062 L 564.113281 394.574219 L 277.722656 394.574219 Z M 277.722656 349.039062 " fill-opacity="1" fill-rule="nonzero"/></g></g><g clip-path="url(#34b89f7e20)"><g clip-path="url(#fb8cb934f6)"><path fill="#b97e60" d="M 277.722656 349.039062 L 564.113281 349.039062 L 564.113281 394.574219 L 277.722656 394.574219 Z M 277.722656 349.039062 " fill-opacity="1" fill-rule="nonzero"/></g></g><g clip-path="url(#aad3a39846)"><g clip-path="url(#376dfb90e5)"><path fill="#b97e60" d="M 277.722656 349.039062 L 564.113281 349.039062 L 564.113281 394.574219 L 277.722656 394.574219 Z M 277.722656 349.039062 " fill-opacity="1" fill-rule="nonzero"/></g></g></svg>